{
 "accessors": [
  {
   "componentType": 5126,
   "type": "VEC3",
   "count": 50,
   "max": [
    0.5,
    0.5,
    0.5
   ],
   "min": [
    -0.5,
    -0.5,
    -0.5
   ],
   "bufferView": 0
  },
  {
   "componentType": 5126,
   "type": "VEC3",
   "count": 50,
   "bufferView": 1
  },
  {
   "componentType": 5126,
   "type": "VEC2",
   "count": 50,
   "bufferView": 2
  },
  {
   "componentType": 5121,
   "type": "SCALAR",
   "count": 144,
   "bufferView": 3
  },
  {
   "componentType": 5126,
   "type": "VEC3",
   "count": 18,
   "max": [
    0.26047223806381226,
    0.3023405373096466,
    0.5
   ],
   "min": [
    -0.6493657231330872,
    -0.6419939994812012,
    -0.504817008972168
   ],
   "bufferView": 4
  },
  {
   "componentType": 5126,
   "type": "VEC3",
   "count": 18,
   "bufferView": 5
  },
  {
   "componentType": 5121,
   "type": "SCALAR",
   "count": 18,
   "bufferView": 6
  }
 ],
 "asset": {
  "version": "2.0",
  "generator": "clara.io"
 },
 "bufferViews": [
  {
   "buffer": 0,
   "byteOffset": 0,
   "byteLength": 600,
   "target": 34962,
   "byteStride": 12
  },
  {
   "buffer": 0,
   "byteOffset": 600,
   "byteLength": 600,
   "target": 34962,
   "byteStride": 12
  },
  {
   "buffer": 0,
   "byteOffset": 1200,
   "byteLength": 400,
   "target": 34962,
   "byteStride": 8
  },
  {
   "buffer": 0,
   "byteOffset": 1600,
   "byteLength": 144,
   "target": 34963
  },
  {
   "buffer": 0,
   "byteOffset": 1744,
   "byteLength": 216,
   "target": 34962,
   "byteStride": 12
  },
  {
   "buffer": 0,
   "byteOffset": 1960,
   "byteLength": 216,
   "target": 34962,
   "byteStride": 12
  },
  {
   "buffer": 0,
   "byteOffset": 2176,
   "byteLength": 18,
   "target": 34963
  }
 ],
 "buffers": [
  {
   "byteLength": 2196,
   "uri": "data:application/octet-stream;base64,"
  }
 ],
 "materials": [
  {
   "name": "Default-Cylinder",
   "pbrMetallicRoughness": {
    "baseColorFactor": [
     0.7294117647058823,
     0.3058823529411765,
     0.3058823529411765,
     1
    ]
   }
  },
  {
   "name": "Default-Box",
   "pbrMetallicRoughness": {
    "baseColorFactor": [
     0.7294117647058823,
     0.3058823529411765,
     0.3058823529411765,
     1
    ]
   }
  }
 ],
 "meshes": [
  {
   "primitives": [
    {
     "indices": 3,
     "material": 0,
     "mode": 4,
     "attributes": {
      "POSITION": 0,
      "NORMAL": 1,
      "TEXCOORD_0": 2
     }
    }
   ]
  },
  {
   "primitives": [
    {
     "indices": 6,
     "material": 1,
     "mode": 4,
     "attributes": {
      "POSITION": 4,
      "NORMAL": 5
     }
    }
   ]
  }
 ],
 "nodes": [
  {
   "name": "Cylinder",
   "translation": [
    0,
    0.9817000031471252,
    0
   ],
   "rotation": [
    0.5,
    0.5,
    0.5,
    0.5
   ],
   "scale": [
    1,
    0.18000000715255737,
    1
   ],
   "mesh": 0
  },
  {
   "name": "Box",
   "translation": [
    0,
    0.555899977684021,
    0
   ],
   "rotation": [
    0,
    0,
    0.38669567411410727,
    0.922207384480057
   ],
   "scale": [
    0.6000000255671866,
    0.6000000255671866,
    0.18000000715255737
   ],
   "mesh": 1
  }
 ],
 "scene": 0,
 "scenes": [
  {
   "nodes": [
    0,
    1
   ]
  }
 ]
}