{
 "accessors": [
  {
   "componentType": 5126,
   "type": "VEC3",
   "count": 625,
   "max": [
    0.699999988079071,
    0.20000000298023224,
    0.699999988079071
   ],
   "min": [
    -0.699999988079071,
    -0.20000000298023224,
    -0.699999988079071
   ],
   "bufferView": 0
  },
  {
   "componentType": 5126,
   "type": "VEC3",
   "count": 625,
   "bufferView": 1
  },
  {
   "componentType": 5126,
   "type": "VEC2",
   "count": 625,
   "bufferView": 2
  },
  {
   "componentType": 5123,
   "type": "SCALAR",
   "count": 3456,
   "bufferView": 3
  },
  {
   "componentType": 5126,
   "type": "VEC3",
   "count": 18,
   "max": [
    0.26047223806381226,
    0.3023405373096466,
    0.5
   ],
   "min": [
    -0.6493657231330872,
    -0.6419939994812012,
    -0.504817008972168
   ],
   "bufferView": 4
  },
  {
   "componentType": 5126,
   "type": "VEC3",
   "count": 18,
   "bufferView": 5
  },
  {
   "componentType": 5121,
   "type": "SCALAR",
   "count": 18,
   "bufferView": 6
  }
 ],
 "asset": {
  "version": "2.0",
  "generator": "clara.io"
 },
 "bufferViews": [
  {
   "buffer": 0,
   "byteOffset": 0,
   "byteLength": 7500,
   "target": 34962,
   "byteStride": 12
  },
  {
   "buffer": 0,
   "byteOffset": 7500,
   "byteLength": 7500,
   "target": 34962,
   "byteStride": 12
  },
  {
   "buffer": 0,
   "byteOffset": 15000,
   "byteLength": 5000,
   "target": 34962,
   "byteStride": 8
  },
  {
   "buffer": 0,
   "byteOffset": 20000,
   "byteLength": 6912,
   "target": 34963
  },
  {
   "buffer": 0,
   "byteOffset": 26912,
   "byteLength": 216,
   "target": 34962,
   "byteStride": 12
  },
  {
   "buffer": 0,
   "byteOffset": 27128,
   "byteLength": 216,
   "target": 34962,
   "byteStride": 12
  },
  {
   "buffer": 0,
   "byteOffset": 27344,
   "byteLength": 18,
   "target": 34963
  }
 ],
 "buffers": [
  {
   "byteLength": 27364,
   "uri": "data:application/octet-stream;base64,"
  }
 ],
 "materials": [
  {
   "name": "Default-Torus1",
   "pbrMetallicRoughness": {
    "baseColorFactor": [
     0.8588235294117647,
     0.3333333333333333,
     0.3333333333333333,
     1
    ]
   }
  },
  {
   "name": "Default-Box",
   "pbrMetallicRoughness": {
    "baseColorFactor": [
     0.8588235294117647,
     0.3333333333333333,
     0.3333333333333333,
     1
    ]
   }
  }
 ],
 "meshes": [
  {
   "primitives": [
    {
     "indices": 3,
     "material": 0,
     "mode": 4,
     "attributes": {
      "POSITION": 0,
      "NORMAL": 1,
      "TEXCOORD_0": 2
     }
    }
   ]
  },
  {
   "primitives": [
    {
     "indices": 6,
     "material": 1,
     "mode": 4,
     "attributes": {
      "POSITION": 4,
      "NORMAL": 5
     }
    }
   ]
  }
 ],
 "nodes": [
  {
   "name": "Torus1",
   "translation": [
    -0.012799999676644802,
    0.9156000018119812,
    0
   ],
   "rotation": [
    0.7071067811865475,
    0,
    0,
    0.7071067811865476
   ],
   "scale": [
    0.699999988079071,
    0.699999988079071,
    0.699999988079071
   ],
   "mesh": 0
  },
  {
   "name": "Box",
   "translation": [
    0,
    0.555899977684021,
    0
   ],
   "rotation": [
    0,
    0,
    0.38669567411410727,
    0.922207384480057
   ],
   "scale": [
    0.6000000255671866,
    0.6000000255671866,
    0.18000000715255737
   ],
   "mesh": 1
  }
 ],
 "scene": 0,
 "scenes": [
  {
   "nodes": [
    0,
    1
   ]
  }
 ]
}