{
 "accessors": [
  {
   "componentType": 5126,
   "type": "VEC3",
   "count": 148,
   "max": [
    0.5,
    0.5,
    0.5
   ],
   "min": [
    -0.5,
    -0.5,
    -0.5
   ],
   "bufferView": 0
  },
  {
   "componentType": 5126,
   "type": "VEC3",
   "count": 148,
   "bufferView": 1
  },
  {
   "componentType": 5126,
   "type": "VEC2",
   "count": 148,
   "bufferView": 2
  },
  {
   "componentType": 5121,
   "type": "SCALAR",
   "count": 288,
   "bufferView": 3
  },
  {
   "componentType": 5126,
   "type": "VEC3",
   "count": 148,
   "max": [
    0.5,
    0.5,
    0.5
   ],
   "min": [
    -0.5,
    -0.5,
    -0.5
   ],
   "bufferView": 4
  },
  {
   "componentType": 5126,
   "type": "VEC3",
   "count": 148,
   "bufferView": 5
  },
  {
   "componentType": 5126,
   "type": "VEC2",
   "count": 148,
   "bufferView": 6
  },
  {
   "componentType": 5121,
   "type": "SCALAR",
   "count": 288,
   "bufferView": 7
  },
  {
   "componentType": 5126,
   "type": "VEC3",
   "count": 18,
   "max": [
    0.26047223806381226,
    0.3023405373096466,
    0.5
   ],
   "min": [
    -0.6493657231330872,
    -0.6419939994812012,
    -0.504817008972168
   ],
   "bufferView": 8
  },
  {
   "componentType": 5126,
   "type": "VEC3",
   "count": 18,
   "bufferView": 9
  },
  {
   "componentType": 5121,
   "type": "SCALAR",
   "count": 18,
   "bufferView": 10
  },
  {
   "componentType": 5126,
   "type": "VEC3",
   "count": 18,
   "max": [
    0.26047223806381226,
    0.3023405373096466,
    0.5
   ],
   "min": [
    -0.6493657231330872,
    -0.6419939994812012,
    -0.504817008972168
   ],
   "bufferView": 11
  },
  {
   "componentType": 5126,
   "type": "VEC3",
   "count": 18,
   "bufferView": 12
  },
  {
   "componentType": 5121,
   "type": "SCALAR",
   "count": 18,
   "bufferView": 13
  }
 ],
 "asset": {
  "version": "2.0",
  "generator": "clara.io"
 },
 "bufferViews": [
  {
   "buffer": 0,
   "byteOffset": 0,
   "byteLength": 1776,
   "target": 34962,
   "byteStride": 12
  },
  {
   "buffer": 0,
   "byteOffset": 1776,
   "byteLength": 1776,
   "target": 34962,
   "byteStride": 12
  },
  {
   "buffer": 0,
   "byteOffset": 3552,
   "byteLength": 1184,
   "target": 34962,
   "byteStride": 8
  },
  {
   "buffer": 0,
   "byteOffset": 4736,
   "byteLength": 288,
   "target": 34963
  },
  {
   "buffer": 0,
   "byteOffset": 5024,
   "byteLength": 1776,
   "target": 34962,
   "byteStride": 12
  },
  {
   "buffer": 0,
   "byteOffset": 6800,
   "byteLength": 1776,
   "target": 34962,
   "byteStride": 12
  },
  {
   "buffer": 0,
   "byteOffset": 8576,
   "byteLength": 1184,
   "target": 34962,
   "byteStride": 8
  },
  {
   "buffer": 0,
   "byteOffset": 9760,
   "byteLength": 288,
   "target": 34963
  },
  {
   "buffer": 0,
   "byteOffset": 10048,
   "byteLength": 216,
   "target": 34962,
   "byteStride": 12
  },
  {
   "buffer": 0,
   "byteOffset": 10264,
   "byteLength": 216,
   "target": 34962,
   "byteStride": 12
  },
  {
   "buffer": 0,
   "byteOffset": 10480,
   "byteLength": 18,
   "target": 34963
  },
  {
   "buffer": 0,
   "byteOffset": 10500,
   "byteLength": 216,
   "target": 34962,
   "byteStride": 12
  },
  {
   "buffer": 0,
   "byteOffset": 10716,
   "byteLength": 216,
   "target": 34962,
   "byteStride": 12
  },
  {
   "buffer": 0,
   "byteOffset": 10932,
   "byteLength": 18,
   "target": 34963
  }
 ],
 "buffers": [
  {
   "byteLength": 10952,
   "uri": "data:application/octet-stream;base64,"
  }
 ],
 "materials": [
  {
   "name": "Default-Cylinder",
   "pbrMetallicRoughness": {
    "baseColorFactor": [
     0.6901960784313725,
     0.6901960784313725,
     0.6901960784313725,
     1
    ]
   }
  },
  {
   "name": "Physical27",
   "pbrMetallicRoughness": {
    "baseColorFactor": [
     0.20392156862745098,
     0.596078431372549,
     0.8588235294117647,
     1
    ],
    "roughnessFactor": 0.6,
    "metallicFactor": 0
   }
  },
  {
   "name": "Physical33",
   "pbrMetallicRoughness": {
    "baseColorFactor": [
     0.20392156862745098,
     0.596078431372549,
     0.8588235294117647,
     0.25
    ],
    "roughnessFactor": 0.4
   },
   "alphaMode": "BLEND"
  },
  {
   "name": "Default-Box",
   "pbrMetallicRoughness": {
    "baseColorFactor": [
     0.6901960784313725,
     0.6901960784313725,
     0.6901960784313725,
     1
    ]
   }
  }
 ],
 "meshes": [
  {
   "primitives": [
    {
     "indices": 3,
     "material": 0,
     "mode": 4,
     "attributes": {
      "POSITION": 0,
      "NORMAL": 1,
      "TEXCOORD_0": 2
     }
    }
   ]
  },
  {
   "primitives": [
    {
     "indices": 7,
     "material": 1,
     "mode": 4,
     "attributes": {
      "POSITION": 4,
      "NORMAL": 5,
      "TEXCOORD_0": 6
     }
    }
   ]
  },
  {
   "primitives": [
    {
     "indices": 10,
     "material": 3,
     "mode": 4,
     "attributes": {
      "POSITION": 8,
      "NORMAL": 9
     }
    }
   ]
  },
  {
   "primitives": [
    {
     "indices": 13,
     "material": 2,
     "mode": 4,
     "attributes": {
      "POSITION": 11,
      "NORMAL": 12
     }
    }
   ]
  }
 ],
 "nodes": [
  {
   "name": "Cylinder",
   "translation": [
    0,
    0.9817000031471252,
    0
   ],
   "rotation": [
    0.5,
    0.5,
    0.5,
    0.5
   ],
   "scale": [
    1,
    0.18000000715255737,
    1
   ],
   "mesh": 0
  },
  {
   "name": "Cylinder1",
   "translation": [
    0,
    0.9800000190734863,
    0.10000000149011612
   ],
   "rotation": [
    0.5,
    0.5,
    0.5,
    0.5
   ],
   "scale": [
    0.800000011920929,
    0.009999999776482582,
    0.800000011920929
   ],
   "mesh": 1
  },
  {
   "name": "Box",
   "translation": [
    -0.550000011920929,
    1,
    0
   ],
   "rotation": [
    0,
    0,
    -0.374606609955176,
    0.9271838512291002
   ],
   "scale": [
    0.6000000148262329,
    0.6000000148262329,
    0.18000000715255737
   ],
   "mesh": 2
  },
  {
   "name": "Box1",
   "translation": [
    -0.6000000238418579,
    1,
    0.10000000149011612
   ],
   "rotation": [
    0,
    0,
    -0.374606609955176,
    0.9271838512291002
   ],
   "scale": [
    0.39999999583734547,
    0.39999999583734547,
    0.009999999776482582
   ],
   "mesh": 3
  }
 ],
 "scene": 0,
 "scenes": [
  {
   "nodes": [
    0,
    1,
    2,
    3
   ]
  }
 ]
}