{
 "accessors": [
  {
   "componentType": 5126,
   "type": "VEC3",
   "count": 360,
   "max": [
    9.922189712524414,
    1,
    6.141039848327637
   ],
   "min": [
    -10.077799797058105,
    -3.760302448870776e-16,
    -6.16664981842041
   ],
   "bufferView": 0
  },
  {
   "componentType": 5126,
   "type": "VEC3",
   "count": 360,
   "bufferView": 1
  },
  {
   "componentType": 5123,
   "type": "SCALAR",
   "count": 360,
   "bufferView": 2
  }
 ],
 "asset": {
  "version": "2.0",
  "generator": "clara.io"
 },
 "bufferViews": [
  {
   "buffer": 0,
   "byteOffset": 0,
   "byteLength": 4320,
   "target": 34962,
   "byteStride": 12
  },
  {
   "buffer": 0,
   "byteOffset": 4320,
   "byteLength": 4320,
   "target": 34962,
   "byteStride": 12
  },
  {
   "buffer": 0,
   "byteOffset": 8640,
   "byteLength": 720,
   "target": 34963
  }
 ],
 "buffers": [
  {
   "byteLength": 9360,
   "uri": "data:application/octet-stream;base64,"
  }
 ],
 "materials": [
  {
   "name": "Default-Polygon-2",
   "pbrMetallicRoughness": {
    "baseColorFactor": [
     0.47843137254901963,
     0.7843137254901961,
     0.9098039215686274,
     1
    ]
   }
  }
 ],
 "meshes": [
  {
   "primitives": [
    {
     "indices": 2,
     "material": 0,
     "mode": 4,
     "attributes": {
      "POSITION": 0,
      "NORMAL": 1
     }
    }
   ]
  }
 ],
 "nodes": [
  {
   "name": "Polygon-2",
   "children": [
    1
   ]
  },
  {
   "name": "Polygon-2",
   "scale": [
    1,
    0.30000001192092896,
    1
   ],
   "mesh": 0
  }
 ],
 "scene": 0,
 "scenes": [
  {
   "nodes": [
    0
   ]
  }
 ]
}