{
 "accessors": [
  {
   "componentType": 5126,
   "type": "VEC3",
   "count": 260,
   "max": [
    0.5,
    0.5,
    0.5
   ],
   "min": [
    -0.5,
    -0.5,
    -0.5
   ],
   "bufferView": 0
  },
  {
   "componentType": 5126,
   "type": "VEC3",
   "count": 260,
   "bufferView": 1
  },
  {
   "componentType": 5126,
   "type": "VEC2",
   "count": 260,
   "bufferView": 2
  },
  {
   "componentType": 5123,
   "type": "SCALAR",
   "count": 432,
   "bufferView": 3
  },
  {
   "componentType": 5126,
   "type": "VEC3",
   "count": 625,
   "max": [
    0.3400000035762787,
    0.03999999910593033,
    0.3400000035762787
   ],
   "min": [
    -0.3400000035762787,
    -0.03999999910593033,
    -0.3400000035762787
   ],
   "bufferView": 4
  },
  {
   "componentType": 5126,
   "type": "VEC3",
   "count": 625,
   "bufferView": 5
  },
  {
   "componentType": 5126,
   "type": "VEC2",
   "count": 625,
   "bufferView": 6
  },
  {
   "componentType": 5123,
   "type": "SCALAR",
   "count": 3456,
   "bufferView": 7
  },
  {
   "componentType": 5126,
   "type": "VEC3",
   "count": 572,
   "max": [
    0.5,
    0.5,
    0.5
   ],
   "min": [
    -0.5,
    -0.5,
    -0.5
   ],
   "bufferView": 8
  },
  {
   "componentType": 5126,
   "type": "VEC3",
   "count": 572,
   "bufferView": 9
  },
  {
   "componentType": 5126,
   "type": "VEC2",
   "count": 572,
   "bufferView": 10
  },
  {
   "componentType": 5123,
   "type": "SCALAR",
   "count": 426,
   "bufferView": 11
  },
  {
   "componentType": 5126,
   "type": "VEC3",
   "count": 18,
   "max": [
    0.26047223806381226,
    0.3023405373096466,
    0.5
   ],
   "min": [
    -0.6493657231330872,
    -0.6419939994812012,
    -0.504817008972168
   ],
   "bufferView": 12
  },
  {
   "componentType": 5126,
   "type": "VEC3",
   "count": 18,
   "bufferView": 13
  },
  {
   "componentType": 5121,
   "type": "SCALAR",
   "count": 18,
   "bufferView": 14
  }
 ],
 "asset": {
  "version": "2.0",
  "generator": "clara.io"
 },
 "bufferViews": [
  {
   "buffer": 0,
   "byteOffset": 0,
   "byteLength": 3120,
   "target": 34962,
   "byteStride": 12
  },
  {
   "buffer": 0,
   "byteOffset": 3120,
   "byteLength": 3120,
   "target": 34962,
   "byteStride": 12
  },
  {
   "buffer": 0,
   "byteOffset": 6240,
   "byteLength": 2080,
   "target": 34962,
   "byteStride": 8
  },
  {
   "buffer": 0,
   "byteOffset": 8320,
   "byteLength": 864,
   "target": 34963
  },
  {
   "buffer": 0,
   "byteOffset": 9184,
   "byteLength": 7500,
   "target": 34962,
   "byteStride": 12
  },
  {
   "buffer": 0,
   "byteOffset": 16684,
   "byteLength": 7500,
   "target": 34962,
   "byteStride": 12
  },
  {
   "buffer": 0,
   "byteOffset": 24184,
   "byteLength": 5000,
   "target": 34962,
   "byteStride": 8
  },
  {
   "buffer": 0,
   "byteOffset": 29184,
   "byteLength": 6912,
   "target": 34963
  },
  {
   "buffer": 0,
   "byteOffset": 36096,
   "byteLength": 6864,
   "target": 34962,
   "byteStride": 12
  },
  {
   "buffer": 0,
   "byteOffset": 42960,
   "byteLength": 6864,
   "target": 34962,
   "byteStride": 12
  },
  {
   "buffer": 0,
   "byteOffset": 49824,
   "byteLength": 4576,
   "target": 34962,
   "byteStride": 8
  },
  {
   "buffer": 0,
   "byteOffset": 54400,
   "byteLength": 852,
   "target": 34963
  },
  {
   "buffer": 0,
   "byteOffset": 55252,
   "byteLength": 216,
   "target": 34962,
   "byteStride": 12
  },
  {
   "buffer": 0,
   "byteOffset": 55468,
   "byteLength": 216,
   "target": 34962,
   "byteStride": 12
  },
  {
   "buffer": 0,
   "byteOffset": 55684,
   "byteLength": 18,
   "target": 34963
  }
 ],
 "buffers": [
  {
   "byteLength": 55704,
   "uri": "data:application/octet-stream;base64,"
  }
 ],
 "materials": [
  {
   "name": "Default-Cylinder",
   "pbrMetallicRoughness": {
    "baseColorFactor": [
     0.19607843137254902,
     1,
     0,
     1
    ]
   }
  },
  {
   "name": "Default-Torus"
  },
  {
   "name": "Default-Cylinder1",
   "pbrMetallicRoughness": {
    "baseColorFactor": [
     0.30980392156862746,
     0.00392156862745098,
     0.00392156862745098,
     1
    ]
   }
  },
  {
   "name": "Default-Box",
   "pbrMetallicRoughness": {
    "baseColorFactor": [
     0.19607843137254902,
     1,
     0,
     1
    ]
   }
  }
 ],
 "meshes": [
  {
   "primitives": [
    {
     "indices": 3,
     "material": 0,
     "mode": 4,
     "attributes": {
      "POSITION": 0,
      "NORMAL": 1,
      "TEXCOORD_0": 2
     }
    }
   ]
  },
  {
   "primitives": [
    {
     "indices": 7,
     "material": 1,
     "mode": 4,
     "attributes": {
      "POSITION": 4,
      "NORMAL": 5,
      "TEXCOORD_0": 6
     }
    }
   ]
  },
  {
   "primitives": [
    {
     "indices": 11,
     "material": 2,
     "mode": 4,
     "attributes": {
      "POSITION": 8,
      "NORMAL": 9,
      "TEXCOORD_0": 10
     }
    }
   ]
  },
  {
   "primitives": [
    {
     "indices": 14,
     "material": 3,
     "mode": 4,
     "attributes": {
      "POSITION": 12,
      "NORMAL": 13
     }
    }
   ]
  }
 ],
 "nodes": [
  {
   "name": "Cylinder",
   "translation": [
    0,
    0.9817000031471252,
    0
   ],
   "rotation": [
    0.5,
    0.5,
    0.5,
    0.5
   ],
   "scale": [
    1,
    0.18000000715255737,
    1
   ],
   "mesh": 0
  },
  {
   "name": "Torus",
   "scale": [
    1.722599983215332,
    0.10000000149011612,
    1.722599983215332
   ],
   "mesh": 1
  },
  {
   "name": "Cylinder1",
   "translation": [
    0,
    1.0084999799728394,
    0
   ],
   "rotation": [
    -0.6909202800489919,
    0,
    0,
    0.722930970039576
   ],
   "scale": [
    0.5601999759674072,
    0.22300001528995295,
    0.5457999734290154
   ],
   "mesh": 2
  },
  {
   "name": "Box",
   "translation": [
    0,
    0.555899977684021,
    0
   ],
   "rotation": [
    0,
    0,
    0.38669567411410727,
    0.922207384480057
   ],
   "scale": [
    0.6000000255671866,
    0.6000000255671866,
    0.18000000715255737
   ],
   "mesh": 3
  }
 ],
 "scene": 0,
 "scenes": [
  {
   "nodes": [
    0,
    1,
    2,
    3
   ]
  }
 ]
}